<?xml version="1.0" standalone="no"?>
<!DOCTYPE svg PUBLIC "-//W3C//DTD SVG 20010904//EN"
 "http://www.w3.org/TR/2001/REC-SVG-20010904/DTD/svg10.dtd">
<svg version="1.0" xmlns="http://www.w3.org/2000/svg"
 width="260.000000pt" height="280.000000pt" viewBox="0 0 260.000000 280.000000"
 preserveAspectRatio="xMidYMid meet">

<g transform="translate(0.000000,280.000000) scale(0.100000,-0.100000)"
fill="#000000" stroke="none">
<path d="M2120 2611 c-32 -9 -47 -32 -240 -376 -89 -159 -173 -309 -186 -332
l-24 -42 -583 -3 c-576 -3 -582 -3 -623 -25 -59 -31 -110 -93 -128 -154 -23
-75 -23 -651 -1 -725 18 -60 72 -127 129 -157 40 -21 52 -22 368 -25 l327 -3
302 -165 c318 -175 337 -181 360 -131 9 19 1 45 -45 152 -31 71 -56 132 -56
136 0 3 30 8 68 11 77 6 132 30 178 80 70 74 69 64 69 463 0 393 0 390 -61
455 l-24 26 171 304 c215 384 211 375 203 405 -7 27 -63 82 -98 94 -37 14 -80
18 -106 12z m87 -70 c54 -25 69 -51 45 -81 l-18 -22 -66 33 c-61 30 -66 34
-56 53 21 41 36 43 95 17z m-60 -124 l62 -32 -210 -375 c-116 -206 -214 -379
-218 -383 -5 -5 -38 6 -74 25 l-65 33 216 383 c118 210 217 382 221 382 3 -1
34 -15 68 -33z m-527 -642 c0 -3 -13 -29 -29 -58 -31 -55 -91 -276 -91 -333 0
-24 6 -38 24 -49 22 -15 27 -15 58 1 18 9 78 62 134 118 76 77 111 121 145
183 24 46 48 83 52 83 4 0 17 -19 27 -42 18 -40 20 -69 20 -361 0 -341 -3
-361 -53 -415 -42 -45 -69 -52 -196 -52 l-119 0 55 -127 c30 -71 59 -139 64
-151 l9 -24 -32 20 c-18 11 -142 78 -274 151 l-242 131 -316 0 c-245 0 -324 3
-349 14 -42 17 -83 66 -97 114 -16 59 -12 638 4 685 16 45 39 73 81 98 28 18
62 19 578 19 301 0 547 -2 547 -5z m68 -183 l52 -27 -85 -85 c-46 -46 -86 -82
-89 -79 -4 3 36 174 49 207 6 16 12 15 73 -16z"/>
<path d="M524 1317 c-36 -32 -36 -83 1 -114 37 -33 80 -30 117 7 35 36 33 71
-8 108 -32 28 -76 28 -110 -1z"/>
<path d="M939 1311 c-16 -16 -29 -39 -29 -51 0 -32 53 -80 88 -80 74 0 109 84
57 135 -34 35 -78 33 -116 -4z"/>
<path d="M1329 1311 c-16 -16 -29 -39 -29 -51 0 -33 53 -80 90 -80 41 0 80 39
80 80 0 74 -87 105 -141 51z"/>
<path d="M427 2283 c-4 -3 -7 -66 -7 -140 0 -112 2 -133 15 -133 12 0 15 13
15 60 l0 60 35 0 c24 0 35 5 35 15 0 10 -11 15 -35 15 l-35 0 0 50 0 50 40 0
c29 0 40 4 40 15 0 11 -12 15 -48 15 -27 0 -52 -3 -55 -7z"/>
<path d="M570 2150 l0 -140 55 0 c42 0 55 3 55 15 0 11 -12 15 -45 15 l-45 0
0 50 0 50 40 0 c29 0 40 4 40 15 0 11 -11 15 -40 15 l-40 0 0 45 0 45 40 0
c29 0 40 4 40 15 0 11 -12 15 -50 15 l-50 0 0 -140z"/>
<path d="M710 2151 l0 -141 55 0 c42 0 55 3 55 15 0 11 -11 15 -40 15 l-40 0
0 50 0 50 35 0 c24 0 35 5 35 15 0 10 -11 15 -35 15 -35 0 -35 0 -35 45 l0 45
41 0 c61 0 45 24 -19 28 l-52 3 0 -140z"/>
<path d="M863 2283 c-10 -3 -13 -41 -13 -138 l0 -133 27 -5 c43 -8 95 14 115
50 22 37 26 129 8 174 -19 46 -88 72 -137 52z m96 -47 c49 -52 33 -174 -25
-196 -50 -19 -54 -10 -54 110 l0 110 28 0 c17 0 38 -10 51 -24z"/>
<path d="M1057 2283 c-4 -3 -7 -66 -7 -140 0 -145 -3 -138 60 -134 53 4 79 80
44 130 -12 17 -13 26 -5 34 20 20 13 84 -11 101 -23 16 -69 21 -81 9z m71 -35
c29 -29 7 -78 -35 -78 -21 0 -23 5 -23 45 0 40 2 45 23 45 13 0 28 -5 35 -12z
m0 -120 c20 -20 15 -76 -9 -88 -35 -19 -49 -6 -49 50 0 46 2 50 23 50 13 0 28
-5 35 -12z"/>
<path d="M1251 2253 c-41 -151 -58 -243 -46 -243 7 0 17 17 22 38 8 34 12 37
45 40 35 3 37 1 44 -33 6 -35 20 -53 31 -41 3 3 -8 67 -26 141 -35 144 -52
167 -70 98z m43 -95 c7 -36 6 -38 -20 -38 -26 0 -26 1 -19 46 3 26 9 54 13 62
6 18 13 1 26 -70z"/>
<path d="M1421 2274 c-73 -52 -66 -225 12 -262 31 -15 90 -7 84 11 -2 7 -15
12 -28 13 -51 1 -59 5 -74 34 -8 16 -15 54 -15 85 0 70 31 108 83 103 23 -2
32 1 32 12 0 22 -64 25 -94 4z"/>
<path d="M1550 2151 c0 -119 2 -141 15 -141 12 0 15 13 15 59 0 33 4 62 8 65
5 3 23 -24 40 -60 18 -37 38 -64 47 -64 12 0 6 19 -24 78 l-40 79 35 57 c38
64 39 66 21 66 -7 0 -29 -27 -48 -60 l-34 -59 -5 56 c-3 32 -10 58 -17 61 -10
3 -13 -29 -13 -137z"/>
<path d="M603 95 c0 -27 2 -38 4 -22 2 15 8 27 13 27 5 0 11 -12 13 -27 4 -26
4 -26 6 5 1 22 -4 32 -13 32 -8 0 -17 8 -19 18 -3 9 -5 -5 -4 -33z"/>
<path d="M1102 95 c0 -27 2 -43 5 -35 3 8 13 24 22 35 15 18 15 19 -1 7 -14
-12 -17 -10 -21 15 -2 16 -4 6 -5 -22z"/>
<path d="M719 119 c-8 -20 4 -62 19 -65 7 -1 8 0 2 3 -15 7 -12 43 4 43 8 0
16 -10 18 -22 2 -12 9 -23 16 -24 7 -1 8 0 2 3 -12 6 -13 40 -1 45 5 2 3 9 -5
16 -8 7 -14 8 -14 2 0 -14 -27 -13 -32 2 -3 8 -6 7 -9 -3z"/>
<path d="M949 118 c-2 -25 3 -53 11 -62 5 -5 6 1 3 14 -3 12 -1 25 4 29 7 4 6
11 -3 19 -11 10 -14 10 -15 0z"/>
<path d="M1500 125 c-1 -5 -1 -21 0 -34 1 -13 -4 -28 -12 -32 -9 -6 -3 -9 17
-9 17 0 25 4 18 8 -6 4 -13 23 -16 42 -2 19 -5 31 -7 25z"/>
<path d="M1552 105 c-22 -28 -23 -30 -5 -34 10 -2 21 -8 24 -13 10 -15 16 14
10 47 l-6 29 -23 -29z m14 -22 c-10 -10 -19 5 -10 18 6 11 8 11 12 0 2 -7 1
-15 -2 -18z"/>
<path d="M1605 120 c-4 -6 1 -7 11 -3 13 5 16 3 11 -10 -3 -9 -2 -19 4 -22 14
-9 -1 -27 -18 -21 -8 3 -11 1 -8 -4 9 -14 32 -12 38 3 14 38 -19 88 -38 57z"/>
<path d="M1670 106 c-15 -29 -8 -56 15 -56 23 0 31 31 12 45 -12 9 -14 14 -5
23 7 7 8 12 2 12 -6 0 -16 -11 -24 -24z m22 -31 c0 -5 -5 -11 -11 -13 -6 -2
-11 4 -11 13 0 9 5 15 11 13 6 -2 11 -8 11 -13z"/>
<path d="M1727 123 c-12 -12 -7 -33 7 -33 26 0 28 -20 4 -29 -14 -6 -17 -10
-7 -10 8 -1 20 4 26 10 14 14 6 39 -13 39 -20 0 -17 18 4 23 14 4 14 5 1 6 -9
0 -19 -2 -22 -6z"/>
<path d="M1785 120 c-4 -6 1 -7 11 -3 13 5 16 3 11 -10 -3 -9 -2 -19 4 -22 14
-9 -1 -27 -18 -21 -8 3 -11 1 -8 -4 9 -14 32 -12 38 3 14 38 -19 88 -38 57z"/>
<path d="M1845 120 c-4 -6 1 -7 11 -3 13 5 16 3 11 -10 -3 -9 -2 -19 4 -22 14
-9 -1 -27 -18 -21 -8 3 -11 1 -8 -4 8 -13 35 -13 35 0 0 6 11 10 25 10 14 0
25 -6 25 -12 0 -10 2 -10 8 0 5 7 6 27 4 44 l-5 32 -22 -26 c-24 -28 -35 -27
-35 4 0 19 -25 25 -35 8z m81 -37 c-10 -10 -19 5 -10 18 6 11 8 11 12 0 2 -7
1 -15 -2 -18z"/>
<path d="M1965 120 c-4 -6 1 -7 11 -3 13 5 16 3 11 -10 -3 -9 -2 -19 4 -22 14
-9 -1 -27 -18 -21 -8 3 -11 1 -8 -4 9 -14 32 -12 38 3 14 38 -19 88 -38 57z"/>
<path d="M2030 106 c-15 -29 -8 -56 15 -56 23 0 31 31 12 45 -12 9 -14 14 -5
23 7 7 8 12 2 12 -6 0 -16 -11 -24 -24z m22 -31 c0 -5 -5 -11 -11 -13 -6 -2
-11 4 -11 13 0 9 5 15 11 13 6 -2 11 -8 11 -13z"/>
<path d="M550 93 c0 -10 4 -14 8 -8 4 6 11 13 16 18 5 4 2 7 -7 7 -10 0 -17
-8 -17 -17z"/>
<path d="M661 83 c-1 -27 3 -33 19 -33 16 0 20 6 19 33 -2 30 -2 30 -6 5 -6
-36 -20 -36 -26 0 -4 25 -4 25 -6 -5z"/>
<path d="M807 104 c-13 -13 -7 -24 14 -24 11 0 19 5 17 12 -5 14 -22 21 -31
12z"/>
<path d="M861 78 c2 -28 2 -29 6 -8 3 14 10 28 17 32 7 5 5 8 -6 8 -14 0 -18
-8 -17 -32z"/>
<path d="M900 93 c0 -10 4 -14 8 -8 4 6 11 13 16 18 5 4 2 7 -7 7 -10 0 -17
-8 -17 -17z"/>
<path d="M994 95 c-8 -21 2 -45 20 -45 7 0 16 7 20 15 8 21 -3 45 -20 45 -8 0
-17 -7 -20 -15z m31 -15 c0 -7 -6 -15 -12 -17 -8 -3 -13 4 -13 17 0 13 5 20
13 18 6 -3 12 -11 12 -18z"/>
<path d="M1054 95 c-8 -20 2 -45 18 -44 10 0 10 2 1 6 -7 2 -13 13 -13 23 0
10 6 21 13 23 9 4 9 6 -1 6 -7 1 -15 -6 -18 -14z"/>
<path d="M1194 95 c-8 -20 2 -45 18 -44 10 0 10 2 1 6 -7 2 -13 13 -13 23 0
10 6 21 13 23 9 4 9 6 -1 6 -7 1 -15 -6 -18 -14z"/>
<path d="M1244 95 c-8 -21 2 -45 20 -45 7 0 16 7 20 15 8 21 -3 45 -20 45 -8
0 -17 -7 -20 -15z m31 -15 c0 -7 -6 -15 -12 -17 -8 -3 -13 4 -13 17 0 13 5 20
13 18 6 -3 12 -11 12 -18z"/>
<path d="M1301 77 c2 -31 2 -31 6 -4 2 15 8 27 13 27 5 0 11 -12 13 -27 l4
-28 2 28 c0 15 5 27 10 27 5 0 12 -12 14 -27 4 -27 4 -27 6 4 1 29 -1 31 -34
31 -33 0 -35 -2 -34 -31z"/>
<path d="M562 65 c-11 -12 -10 -15 3 -15 8 0 15 7 15 15 0 18 -2 18 -18 0z"/>
<path d="M912 65 c-11 -12 -10 -15 3 -15 8 0 15 7 15 15 0 18 -2 18 -18 0z"/>
<path d="M1120 71 c0 -5 5 -13 10 -16 6 -3 10 -2 10 4 0 5 -4 13 -10 16 -5 3
-10 2 -10 -4z"/>
<path d="M808 58 c5 -5 16 -8 23 -6 8 3 3 7 -10 11 -17 4 -21 3 -13 -5z"/>
</g>
</svg>
