<svg xmlns="http://www.w3.org/2000/svg" xmlns:xlink="http://www.w3.org/1999/xlink" width="206" height="206" viewBox="0 0 206 206">
  <defs>
    <radialGradient id="radial-gradient" cx="0.5" cy="0.5" r="0.5" gradientUnits="objectBoundingBox">
      <stop offset="0" stop-color="#ffc200"/>
      <stop offset="0.68" stop-color="#ffc91d"/>
      <stop offset="1" stop-color="#ffcc2a"/>
    </radialGradient>
  </defs>
  <g id="Group_12" data-name="Group 12" transform="translate(-65 -36)">
    <circle id="Ellipse_2" data-name="Ellipse 2" cx="103" cy="103" r="103" transform="translate(65 36)" fill="url(#radial-gradient)"/>
    <g id="Path_7" data-name="Path 7" transform="translate(70 41)" fill="none">
      <path d="M98,0A98,98,0,1,1,0,98,98,98,0,0,1,98,0Z" stroke="none"/>
      <path d="M 98 1.5 C 91.45162963867188 1.5 84.90779113769531 2.159637451171875 78.55029296875 3.460556030273438 C 72.35513305664063 4.728256225585938 66.26139831542969 6.619873046875 60.43830871582031 9.082839965820313 C 54.72061157226563 11.50120544433594 49.20576477050781 14.49458312988281 44.04696655273438 17.97978210449219 C 38.93681335449219 21.43215942382813 34.13139343261719 25.39700317382813 29.76420593261719 29.76420593261719 C 25.39700317382813 34.13139343261719 21.43215942382813 38.93681335449219 17.97978210449219 44.04696655273438 C 14.49458312988281 49.20576477050781 11.50120544433594 54.72061157226563 9.082839965820313 60.43830871582031 C 6.619873046875 66.26139831542969 4.728256225585938 72.35513305664063 3.460556030273438 78.55029296875 C 2.159637451171875 84.90779113769531 1.5 91.45162963867188 1.5 98 C 1.5 104.5483703613281 2.159637451171875 111.0922088623047 3.460556030273438 117.44970703125 C 4.728256225585938 123.6448669433594 6.619873046875 129.7386016845703 9.082839965820313 135.5616760253906 C 11.50120544433594 141.2793884277344 14.49458312988281 146.7942352294922 17.97978210449219 151.9530334472656 C 21.43215942382813 157.0631866455078 25.39700317382813 161.8686065673828 29.76420593261719 166.2357940673828 C 34.13139343261719 170.6029968261719 38.93681335449219 174.5678405761719 44.04696655273438 178.0202026367188 C 49.20576477050781 181.5054168701172 54.72061157226563 184.4987945556641 60.43830871582031 186.9171600341797 C 66.26139831542969 189.380126953125 72.35513305664063 191.2717437744141 78.55029296875 192.5394439697266 C 84.90779113769531 193.8403625488281 91.45162963867188 194.5 98 194.5 C 104.5483703613281 194.5 111.0922088623047 193.8403625488281 117.44970703125 192.5394439697266 C 123.6448669433594 191.2717437744141 129.7386016845703 189.380126953125 135.5616760253906 186.9171600341797 C 141.2793884277344 184.4987945556641 146.7942352294922 181.5054168701172 151.9530334472656 178.0202026367188 C 157.0631866455078 174.5678405761719 161.8686065673828 170.6029968261719 166.2357940673828 166.2357940673828 C 170.6029968261719 161.8686065673828 174.5678405761719 157.0631866455078 178.0202026367188 151.9530334472656 C 181.5054168701172 146.7942352294922 184.4987945556641 141.2793884277344 186.9171600341797 135.5616760253906 C 189.380126953125 129.7386016845703 191.2717437744141 123.6448669433594 192.5394439697266 117.44970703125 C 193.8403625488281 111.0922088623047 194.5 104.5483703613281 194.5 98 C 194.5 91.45162963867188 193.8403625488281 84.90779113769531 192.5394439697266 78.55029296875 C 191.2717437744141 72.35513305664063 189.380126953125 66.26139831542969 186.9171600341797 60.43830871582031 C 184.4987945556641 54.72061157226563 181.5054168701172 49.20576477050781 178.0202026367188 44.04696655273438 C 174.5678405761719 38.93681335449219 170.6029968261719 34.13139343261719 166.2357940673828 29.76420593261719 C 161.8686065673828 25.39700317382813 157.0631866455078 21.43215942382813 151.9530334472656 17.97978210449219 C 146.7942352294922 14.49458312988281 141.2793884277344 11.50120544433594 135.5616760253906 9.082839965820313 C 129.7386016845703 6.619873046875 123.6448669433594 4.728256225585938 117.44970703125 3.460556030273438 C 111.0922088623047 2.159637451171875 104.5483703613281 1.5 98 1.5 M 98 0 C 152.1239013671875 0 196 43.8760986328125 196 98 C 196 152.1239013671875 152.1239013671875 196 98 196 C 43.8760986328125 196 0 152.1239013671875 0 98 C 0 43.8760986328125 43.8760986328125 0 98 0 Z" stroke="none" fill="#fff"/>
    </g>
  </g>
</svg>
