<svg xmlns="http://www.w3.org/2000/svg" width="34" height="34" viewBox="0 0 34 34">
  <g id="Group_73" data-name="Group 73" transform="translate(0 0.331)">
    <circle id="Ellipse_7" data-name="Ellipse 7" cx="17" cy="17" r="17" transform="translate(0 -0.331)" fill="#46bc2d"/>
    <path id="Icon_material-call" data-name="Icon material-call" d="M7.612,11.2a13.022,13.022,0,0,0,5.665,5.665l1.891-1.891a.855.855,0,0,1,.877-.206,9.806,9.806,0,0,0,3.069.49.862.862,0,0,1,.86.86v3a.862.862,0,0,1-.86.86A14.612,14.612,0,0,1,4.5,5.36a.862.862,0,0,1,.86-.86H8.368a.862.862,0,0,1,.86.86,9.766,9.766,0,0,0,.49,3.069.863.863,0,0,1-.215.877Z" transform="translate(4.5 4.5)" fill="#fff"/>
  </g>
</svg>
