<svg xmlns="http://www.w3.org/2000/svg" width="143.886" height="142.211" viewBox="0 0 143.886 142.211">
  <g id="Group_7" data-name="Group 7" transform="translate(-95.315 -63.555)">
    <g id="Group_6" data-name="Group 6">
      <g id="Group_1" data-name="Group 1" transform="translate(96.706 64.947)">
        <g id="Union_2" data-name="Union 2" transform="translate(0 0)" fill="#fff">
          <path d="M 56.84535217285156 60.59605407714844 C 56.71192932128906 60.59605407714844 56.58642959594727 60.54402542114258 56.49195098876953 60.44955444335938 L 41.15370178222656 45.11130523681641 L 40.80015182495117 44.75774383544922 L 40.44660186767578 45.11130523681641 L 33.47565078735352 52.08225250244141 C 32.05923080444336 53.49867248535156 30.17590141296387 54.27873611450195 28.1725902557373 54.27873611450195 C 26.16925048828125 54.27873611450195 24.2856616973877 53.49865341186523 22.86880111694336 52.08220291137695 L 0.1339609175920486 29.34645462036133 C -0.5272590517997742 28.68524360656738 -0.891399085521698 27.80625343322754 -0.891399085521698 26.87141418457031 C -0.891399085521698 25.9366340637207 -0.527289092540741 25.05792427062988 0.1338509321212769 24.39716529846191 L 24.39705085754395 0.1339543908834457 C 25.05792045593262 -0.527285635471344 25.93663024902344 -0.891395628452301 26.87141036987305 -0.891395628452301 C 27.80625152587891 -0.891395628452301 28.68524169921875 -0.5272555947303772 29.34645080566406 0.1339543908834457 L 52.08225250244141 22.86886405944824 C 55.00611114501953 25.79355430603027 55.00613021850586 30.5517635345459 52.08225250244141 33.47565460205078 L 45.6504020690918 39.90750503540039 L 45.29684066772461 40.26105499267578 L 45.6504020690918 40.61460494995117 L 60.98865127563477 55.95285415649414 C 61.18376159667969 56.14797592163086 61.18376159667969 56.46543502807617 60.98865127563477 56.66055297851563 L 57.19879150390625 60.44950485229492 C 57.10427093505859 60.54402542114258 56.9787712097168 60.59605407714844 56.84535217285156 60.59605407714844 Z" stroke="none"/>
          <path d="M 56.84535217285156 60.09605407714844 L 56.84527969360352 60.09591293334961 L 60.63508987426758 56.30641555786133 L 45.29684066772461 40.96816253662109 L 44.58974075317383 40.26105499267578 L 45.29684066772461 39.5539436340332 L 51.72869110107422 33.12209320068359 C 54.45764923095703 30.39313507080078 54.45761108398438 25.95211410522461 51.72871017456055 23.2224235534668 L 28.99289131164551 0.4875143766403198 C 28.42612075805664 -0.07925561815500259 27.67270088195801 -0.391395628452301 26.87141036987305 -0.391395628452301 C 26.07023048400879 -0.391395628452301 25.3171215057373 -0.07933561503887177 24.7506103515625 0.4875143766403198 L 0.4873009324073792 24.75081443786621 C -0.07933907210826874 25.31712532043457 -0.391399085521698 26.07024383544922 -0.391399085521698 26.87141418457031 C -0.391399085521698 27.67270469665527 -0.07925907522439957 28.42612457275391 0.4875209331512451 28.9929141998291 L 23.2223014831543 51.72859573364258 C 24.54474067687988 53.05064392089844 26.30278015136719 53.77873611450195 28.1725902557373 53.77873611450195 C 30.0423412322998 53.77873611450195 31.80011177062988 53.05068588256836 33.12208938598633 51.72869491577148 L 40.09304046630859 44.75774383544922 L 40.80015182495117 44.05064392089844 L 41.50725936889648 44.75774383544922 L 56.84458923339844 60.09599304199219 C 56.84466934204102 60.09601593017578 56.84495162963867 60.09605407714844 56.84535217285156 60.09605407714844 M 56.84535217285156 61.09605407714844 C 56.58953094482422 61.09605407714844 56.33370208740234 60.99840545654297 56.13840103149414 60.80310440063477 L 40.80015182495117 45.4648551940918 L 33.82920074462891 52.43580627441406 C 32.26725006103516 53.99775314331055 30.2199764251709 54.77872848510742 28.17258834838867 54.77872848510742 C 26.12520027160645 54.77872848510742 24.07770156860352 53.99775314331055 22.51530075073242 52.43580627441406 L -0.2195990681648254 29.70000457763672 C -1.781999111175537 28.13760375976563 -1.781999111175537 25.60500526428223 -0.2195990681648254 24.04350471496582 L 24.04350090026855 -0.2195956110954285 C 24.82425117492676 -1.000795602798462 25.84777641296387 -1.391395568847656 26.87141418457031 -1.391395568847656 C 27.89505004882813 -1.391395568847656 28.91880035400391 -1.000795602798462 29.70000076293945 -0.2195956110954285 L 52.4358024597168 22.51530456542969 C 55.55970001220703 25.64010429382324 55.55970001220703 30.7053050994873 52.4358024597168 33.82920455932617 L 46.00395202636719 40.26105499267578 L 61.34220123291016 55.59930419921875 C 61.7327995300293 55.98990249633789 61.7327995300293 56.62350463867188 61.34220123291016 57.01410293579102 L 57.55229949951172 60.80310440063477 C 57.35700225830078 60.99840545654297 57.10118103027344 61.09605407714844 56.84535217285156 61.09605407714844 Z" stroke="none" fill="#e7e4e4"/>
        </g>
        <g id="Ellipse_1" data-name="Ellipse 1" transform="matrix(0.695, -0.719, 0.719, 0.695, 101.027, 112.155)" fill="#fff" stroke="#e7e4e4" stroke-width="1">
          <ellipse cx="7.359" cy="20.237" rx="7.359" ry="20.237" stroke="none"/>
          <ellipse cx="7.359" cy="20.237" rx="6.859" ry="19.737" fill="none"/>
        </g>
      </g>
      <g id="Group_3" data-name="Group 3" transform="translate(106.37 75.531)">
        <line id="Line_1" data-name="Line 1" x2="18.397" y2="18.397" transform="translate(0 14.718)" fill="none" stroke="#433800" stroke-linecap="round" stroke-width="2.5"/>
        <line id="Line_2" data-name="Line 2" x2="18.397" y2="18.397" transform="translate(7.359 7.359)" fill="none" stroke="#433800" stroke-linecap="round" stroke-width="2.5"/>
        <line id="Line_3" data-name="Line 3" x2="18.397" y2="18.397" transform="translate(16.557)" fill="none" stroke="#433800" stroke-linecap="round" stroke-width="2.5"/>
      </g>
    </g>
    <g id="Group_2" data-name="Group 2" transform="translate(102.236 68.626)">
      <g id="Union_1" data-name="Union 1" transform="translate(83)" fill="#fff">
        <path d="M 3.140100240707397 53.77585601806641 C 3.006400108337402 53.77585601806641 2.880730152130127 53.72382736206055 2.786240100860596 53.62934494018555 L 2.686840295791626 53.52994537353516 L 2.550210237503052 53.49690628051758 L -1.38397490978241 52.54565048217773 C -1.099305033683777 52.01819610595703 -0.2515751123428345 50.98465728759766 0.2981602251529694 50.43365478515625 L 13.62691974639893 37.10487747192383 L 13.88560009002686 36.84620666503906 L 13.71735000610352 36.52136611938477 C 12.88661003112793 34.91748428344727 12.57474994659424 33.0445556640625 12.83921051025391 31.24759674072266 C 13.11270046234131 29.38929557800293 13.96140003204346 27.70290565490723 15.29355049133301 26.37074661254883 L 40.95719909667969 0.7071060538291931 L 41.8359489440918 1.58585524559021 L 24.24313926696777 28.92270660400391 L 24.9242000579834 29.62001609802246 L 52.82928466796875 12.57851791381836 L 53.25885009765625 13.00844669342041 L 27.59505081176758 38.67225646972656 C 25.95232963562012 40.31496429443359 23.76807022094727 41.21965789794922 21.44464111328125 41.21965789794922 C 20.03606033325195 41.21965789794922 18.63640975952148 40.87520599365234 17.39702033996582 40.22352600097656 L 17.07111930847168 40.05216598510742 L 16.81077003479004 40.31252670288086 L 3.493950128555298 53.62935638427734 C 3.399470329284668 53.72382736206055 3.273800134658813 53.77585601806641 3.140100240707397 53.77585601806641 Z" stroke="none"/>
        <path d="M 3.140100240707397 53.27585601806641 L 3.140390157699585 53.27579498291016 L 16.45721054077148 39.95896530151367 L 16.97792053222656 39.43825531005859 L 17.62971115112305 39.78097534179688 C 18.79762077331543 40.39506530761719 20.11680030822754 40.71965789794922 21.44464111328125 40.71965789794922 C 23.6345100402832 40.71965789794922 25.69320106506348 39.86697769165039 27.24148941040039 38.31869506835938 L 51.71579360961914 13.84438419342041 L 25.18478965759277 30.0467357635498 L 23.82269096374512 28.65212631225586 L 41.19729995727539 1.654326558113098 L 40.95719909667969 1.414225935935974 L 15.64710998535156 26.72430610656738 C 14.39151000976563 27.97990608215332 13.59160995483398 29.56920623779297 13.33388042449951 31.32039642333984 C 13.08456039428711 33.01446533203125 13.37841987609863 34.77987670898438 14.1613302230835 36.29140472412109 L 14.49783039093018 36.94107437133789 L 13.9804801940918 37.45843505859375 L 0.6521202325820923 50.78679656982422 C 0.1993773877620697 51.24058532714844 -0.2558051645755768 51.79312133789063 -0.5734063982963562 52.22723770141602 L 2.667720317840576 53.01091766357422 L 2.940170288085938 53.07695770263672 L 3.138970136642456 53.2757568359375 C 3.139080286026001 53.27577590942383 3.139510154724121 53.27585601806641 3.140100240707397 53.27585601806641 M 3.140100240707397 54.27585601806641 C 2.884050130844116 54.27585601806641 2.628000259399414 54.17819595336914 2.432700157165527 53.98290634155273 L -1.925999760627747 52.92900466918945 C -2.31659984588623 52.53840637207031 -0.4454997777938843 50.47110748291016 -0.05579977855086327 50.08050537109375 L 13.27336978912354 36.75132751464844 C 11.47935009002686 33.28768539428711 12.03495979309082 28.9222469329834 14.94000053405762 26.01719665527344 L 40.95719909667969 6.10168444836745e-06 L 42.47460174560547 1.517406105995178 L 24.66360092163086 29.19329643249512 L 52.90470123291016 11.94659614562988 L 53.96580123901367 13.00859642028809 L 27.94860076904297 39.02580642700195 C 26.15268135070801 40.82172012329102 23.7987060546875 41.71965408325195 21.44463729858398 41.71965789794922 C 19.97241020202637 41.71965789794922 18.50015640258789 41.36846160888672 17.16431999206543 40.66607666015625 L 3.847500324249268 53.98290634155273 C 3.652200222015381 54.17819595336914 3.3961501121521 54.27585601806641 3.140100240707397 54.27585601806641 Z" stroke="none" fill="#e7e4e4"/>
      </g>
      <g id="Path_2" data-name="Path 2" transform="translate(28.619 97.737) rotate(45)" fill="#fff">
        <path d="M 7.344486236572266 39.97329711914063 C 5.442306518554688 39.97329711914063 3.800906419754028 38.6671257019043 2.597736358642578 36.19598770141602 C 1.225386500358582 33.37736892700195 0.4999964833259583 29.15112686157227 0.4999964833259583 23.97414779663086 C 0.4999964833259583 17.68155670166016 2.352426528930664 11.46819686889648 3.45664644241333 8.324546813964844 C 4.197186470031738 6.216257095336914 5.040226459503174 4.233947277069092 5.830466270446777 2.742777109146118 C 6.726144313812256 1.052656412124634 7.210883140563965 0.6202195882797241 7.354389667510986 0.5201837420463562 C 7.495872974395752 0.6081401705741882 7.966458797454834 0.9884353280067444 8.842246055603027 2.501646995544434 C 9.624466896057129 3.85319709777832 10.47539615631104 5.685536861419678 11.23829650878906 7.661117076873779 C 12.36834621429443 10.58748722076416 14.31911659240723 16.46303749084473 14.68740653991699 22.93442726135254 C 14.89059638977051 26.50470733642578 14.60753631591797 29.71257781982422 13.84609603881836 32.46892547607422 C 13.18298625946045 34.86933898925781 12.16567611694336 36.84395599365234 10.90414619445801 38.17932891845703 C 9.795416831970215 39.35295867919922 8.564506530761719 39.97329711914063 7.344486236572266 39.97329711914063 Z" stroke="none"/>
        <path d="M 7.368936538696289 1.214992523193359 C 7.121621131896973 1.520248413085938 6.702381134033203 2.129215240478516 6.103246688842773 3.30181884765625 C 5.330046653747559 4.815097808837891 4.514956474304199 6.780605316162109 3.808126449584961 8.836286544799805 C 2.759376525878906 11.88635635375977 0.9999961853027344 17.9088077545166 0.9999961853027344 23.97414779663086 C 0.9999961853027344 29.07572746276855 1.70793628692627 33.22627639770508 3.047286033630371 35.97710800170898 C 3.823846817016602 37.57205581665039 5.199736595153809 39.47329711914063 7.344486236572266 39.47329711914063 C 8.42353630065918 39.47329711914063 9.528757095336914 38.9071159362793 10.54068660736084 37.83596801757813 C 11.74635696411133 36.55972671508789 12.72269630432129 34.65779876708984 13.36414623260498 32.33578491210938 C 14.11104679107666 29.6320972442627 14.38829612731934 26.47857666015625 14.18821620941162 22.96283721923828 C 13.83361625671387 16.73210716247559 11.98055648803711 11.03676795959473 10.90752601623535 8.196407318115234 C 10.16950607299805 6.242828369140625 9.369166374206543 4.47216796875 8.593046188354492 3.075836181640625 C 8.016880035400391 2.039249420166016 7.611896514892578 1.493457794189453 7.368936538696289 1.214992523193359 M 7.346418380737305 0 C 8.842151641845703 0 14.53668403625488 11.48604774475098 15.18659687042236 22.9060173034668 C 15.83679676055908 34.33087921142578 11.40862655639648 40.47329711914063 7.344486236572266 40.47329711914063 C 3.280346870422363 40.47329711914063 -3.814697265625e-06 35.15052795410156 -3.814697265625e-06 23.97414779663086 C -3.814697265625e-06 12.79775619506836 5.851706504821777 0.009906768798828125 7.344486236572266 7.62939453125e-06 C 7.345124244689941 3.814697265625e-06 7.345779418945313 0 7.346418380737305 0 Z" stroke="none" fill="#e7e4e4"/>
      </g>
    </g>
  </g>
</svg>
