<?xml version="1.0" standalone="no"?>
<!DOCTYPE svg PUBLIC "-//W3C//DTD SVG 20010904//EN"
 "http://www.w3.org/TR/2001/REC-SVG-20010904/DTD/svg10.dtd">
<svg version="1.0" xmlns="http://www.w3.org/2000/svg"
 width="225.000000pt" height="225.000000pt" viewBox="0 0 225.000000 225.000000"
 preserveAspectRatio="xMidYMid meet">

<g transform="translate(0.000000,225.000000) scale(0.100000,-0.100000)"
fill="#000000" stroke="none">
<path d="M1705 2168 c-44 -23 -45 -32 -45 -265 0 -123 -3 -223 -6 -223 -3 0
-110 102 -237 226 -127 124 -241 233 -254 241 -14 9 -33 12 -51 9 -20 -5 -182
-161 -565 -544 -482 -482 -537 -541 -537 -569 0 -17 3 -39 6 -48 8 -20 55 -45
86 -45 16 0 158 135 523 500 l500 500 420 -421 c502 -503 584 -579 623 -579
44 0 72 33 72 85 0 43 -3 46 -160 208 l-160 165 0 357 0 357 -29 29 c-27 26
-35 29 -98 29 -37 0 -77 -6 -88 -12z"/>
<path d="M639 1303 l-479 -477 0 -275 c0 -269 1 -277 24 -326 29 -60 76 -107
136 -134 44 -20 62 -21 808 -21 l763 0 47 24 c60 31 110 80 133 132 16 34 19
82 25 313 l7 273 -484 484 c-266 266 -488 484 -493 484 -5 0 -224 -215 -487
-477z m725 -384 l26 -31 0 -295 0 -295 -29 -29 -29 -29 -197 0 c-294 0 -274
-24 -275 348 0 305 4 332 53 352 12 5 113 9 224 9 l201 1 26 -31z"/>
</g>
</svg>
