<svg xmlns="http://www.w3.org/2000/svg" width="18.778" height="11.859" viewBox="0 0 18.778 11.859">
  <g id="Icon_ionic-ios-mail" data-name="Icon ionic-ios-mail" transform="translate(-3.375 -9.016)">
    <path id="Path_70" data-name="Path 70" d="M22,10.339l-4.857,4.569a.076.076,0,0,0,0,.117l3.4,3.344a.512.512,0,0,1,0,.767.623.623,0,0,1-.831,0l-3.385-3.331a.1.1,0,0,0-.131,0l-.826.775a3.788,3.788,0,0,1-2.591,1.009,3.863,3.863,0,0,1-2.645-1.038l-.794-.746a.1.1,0,0,0-.131,0L5.822,19.136a.623.623,0,0,1-.831,0,.512.512,0,0,1,0-.767l3.4-3.344a.084.084,0,0,0,0-.117L3.528,10.339a.09.09,0,0,0-.153.058v9.143a1.4,1.4,0,0,0,1.444,1.334H20.708a1.4,1.4,0,0,0,1.444-1.334V10.4A.092.092,0,0,0,22,10.339Z" fill="#707070"/>
    <path id="Path_71" data-name="Path 71" d="M13.612,15.38a2.839,2.839,0,0,0,1.873-.672L23,8.162a1.67,1.67,0,0,0-.949-.287H5.174a1.659,1.659,0,0,0-.949.287l7.518,6.546A2.839,2.839,0,0,0,13.612,15.38Z" transform="translate(-0.851 1.141)" fill="#707070"/>
  </g>
</svg>
