<svg xmlns="http://www.w3.org/2000/svg" width="18.567" height="16.276" viewBox="0 0 18.567 16.276">
  <path id="Icon_map-food" data-name="Icon map-food" d="M19.246,7.169,17.724,19.1H12.583L11.067,7.109h6.276l1.24-4.285.7.212L18.1,7.16l1.149.009Zm-8.906,6.9s.192-1.547-2.474-1.547H3.621c-2.662,0-2.474,1.547-2.474,1.547H10.34ZM1.147,17.553S.959,19.1,3.621,19.1H7.867c2.666,0,2.474-1.547,2.474-1.547Zm8.794-.774a.89.89,0,0,0,.789-.967.888.888,0,0,0-.789-.967H1.509a.89.89,0,0,0-.789.967.891.891,0,0,0,.789.967Z" transform="translate(-0.72 -2.825)" fill="#323746"/>
</svg>
