<svg xmlns="http://www.w3.org/2000/svg" width="101.539" height="101.539" viewBox="0 0 101.539 101.539">
  <path id="Icon_awesome-user-circle" data-name="Icon awesome-user-circle" d="M50.769.563a50.769,50.769,0,1,0,50.769,50.769A50.761,50.761,0,0,0,50.769.563Zm0,19.653A18.015,18.015,0,1,1,32.754,38.23,18.015,18.015,0,0,1,50.769,20.215Zm0,70.422A39.229,39.229,0,0,1,20.779,76.675,22.824,22.824,0,0,1,40.943,64.434a5.009,5.009,0,0,1,1.453.225,27.1,27.1,0,0,0,8.373,1.413,27,27,0,0,0,8.373-1.413,5.009,5.009,0,0,1,1.453-.225A22.824,22.824,0,0,1,80.76,76.675,39.229,39.229,0,0,1,50.769,90.637Z" transform="translate(0 -0.563)" fill="#dadada"/>
</svg>
