<?xml version="1.0" standalone="no"?>
<!DOCTYPE svg PUBLIC "-//W3C//DTD SVG 20010904//EN"
 "http://www.w3.org/TR/2001/REC-SVG-20010904/DTD/svg10.dtd">
<svg version="1.0" xmlns="http://www.w3.org/2000/svg"
 width="1300.000000pt" height="1300.000000pt" viewBox="0 0 1300.000000 1300.000000"
 preserveAspectRatio="xMidYMid meet">

<g transform="translate(0.000000,1300.000000) scale(0.100000,-0.100000)"
fill="#000000" stroke="none">
<path d="M5555 11085 c-5 -2 -30 -9 -53 -15 -51 -13 -122 -74 -149 -128 -17
-34 -18 -79 -23 -611 l-5 -574 -120 -49 c-66 -27 -137 -56 -158 -65 l-38 -16
-402 400 c-384 383 -404 402 -456 417 -68 20 -94 20 -162 0 -52 -15 -76 -37
-732 -692 -394 -393 -687 -694 -700 -717 -30 -56 -30 -173 -1 -229 11 -21 198
-215 414 -432 l393 -393 -46 -108 c-26 -59 -55 -130 -66 -158 l-19 -50 -573
-5 c-565 -5 -575 -5 -614 -27 -47 -25 -95 -74 -121 -123 -18 -33 -19 -81 -22
-988 -2 -671 1 -966 9 -994 l11 -41 246 244 247 244 -242 -245 c-134 -135
-243 -250 -243 -255 0 -23 65 -87 114 -113 l51 -27 570 -3 570 -3 29 -77 c15
-42 44 -113 63 -156 l34 -79 -399 -401 c-357 -358 -401 -406 -416 -450 -20
-63 -20 -119 0 -182 15 -43 56 -89 365 -399 l349 -350 47 45 48 45 -45 -48
-45 -47 325 -325 c356 -355 369 -364 477 -365 116 0 118 1 553 434 l395 393
75 -33 c41 -19 112 -48 158 -65 l82 -32 0 -566 0 -566 24 -50 c26 -56 70 -98
131 -126 38 -18 92 -19 969 -19 883 0 928 1 915 18 -13 16 -13 16 7 -1 59 -49
204 24 253 129 22 45 22 53 21 612 l0 567 122 49 c68 27 140 58 161 68 l39 19
399 -398 c260 -260 412 -404 436 -415 60 -26 159 -23 219 7 37 19 206 181 720
697 636 638 673 676 689 727 21 63 16 150 -10 202 -9 19 -195 212 -411 429
l-395 396 49 114 c27 63 55 133 63 155 l15 40 569 5 570 5 49 25 c86 44 155
149 124 188 -12 15 -11 16 5 3 16 -13 17 31 17 889 0 858 -1 902 -17 889 -15
-11 -15 -10 1 9 40 47 2 189 -67 254 -71 65 -45 63 -675 68 l-573 5 -44 112
c-24 61 -53 130 -65 153 l-22 43 394 396 c252 253 402 410 414 436 27 56 26
176 -2 228 -31 59 -1349 1373 -1404 1400 -58 28 -157 30 -215 3 -26 -13 -177
-155 -437 -414 l-397 -395 -108 46 c-59 25 -130 54 -158 64 l-50 19 -5 579
c-6 646 -1 605 -77 676 -62 59 -73 62 -108 31 l-30 -27 23 26 c19 21 21 29 10
35 -12 9 -1892 17 -1913 9z m5 -50 c19 -19 32 -35 29 -35 -3 0 -20 16 -39 35
-19 19 -32 35 -29 35 3 0 20 -16 39 -35z m80 -80 c19 -19 32 -35 29 -35 -3 0
-20 16 -39 35 -19 19 -32 35 -29 35 3 0 20 -16 39 -35z m1770 32 c0 -2 -10
-12 -22 -23 l-23 -19 19 23 c18 21 26 27 26 19z m-1690 -112 c19 -19 32 -35
29 -35 -3 0 -20 16 -39 35 -19 19 -32 35 -29 35 3 0 20 -16 39 -35z m1610 32
c0 -2 -10 -12 -22 -23 l-23 -19 19 23 c18 21 26 27 26 19z m-1530 -112 c19
-19 32 -35 29 -35 -3 0 -20 16 -39 35 -19 19 -32 35 -29 35 3 0 20 -16 39 -35z
m1450 32 c0 -2 -10 -12 -22 -23 l-23 -19 19 23 c18 21 26 27 26 19z m-1370
-112 c19 -19 32 -35 29 -35 -3 0 -20 16 -39 35 -19 19 -32 35 -29 35 3 0 20
-16 39 -35z m1290 32 c0 -2 -10 -12 -22 -23 l-23 -19 19 23 c18 21 26 27 26
19z m-1210 -112 c19 -19 32 -35 29 -35 -3 0 -20 16 -39 35 -19 19 -32 35 -29
35 3 0 20 -16 39 -35z m1130 32 c0 -2 -10 -12 -22 -23 l-23 -19 19 23 c18 21
26 27 26 19z m-80 -82 c-10 -12 -2 -14 57 -17 l68 -3 5 -540 5 -540 28 -48
c38 -64 94 -102 196 -133 124 -38 266 -96 431 -176 180 -87 234 -96 326 -54
50 23 109 78 424 391 l365 365 235 -235 234 -234 26 22 25 21 -23 -24 -22 -25
217 -217 217 -218 -376 -377 c-369 -371 -376 -379 -393 -437 -25 -84 -15 -131
56 -276 74 -151 136 -300 180 -435 33 -103 62 -159 95 -185 17 -13 17 -12 -1
10 -11 14 1 6 26 -17 26 -23 64 -46 85 -52 26 -7 218 -11 552 -11 l512 0 0
-645 0 -645 -524 0 c-364 0 -533 -3 -557 -11 -83 -28 -147 -103 -179 -212 -37
-124 -107 -296 -181 -447 -84 -171 -92 -215 -60 -302 20 -52 53 -87 391 -426
204 -203 370 -371 370 -374 0 -4 -100 -106 -222 -227 l-221 -221 19 -22 19
-23 -22 19 -22 18 -193 -192 c-106 -106 -210 -209 -231 -228 l-38 -35 -367
366 c-405 404 -413 411 -526 409 -53 -1 -77 -9 -215 -76 -177 -86 -264 -121
-424 -172 -102 -33 -116 -41 -162 -88 -32 -32 -55 -67 -63 -93 -10 -32 -13
-172 -12 -563 l0 -520 -130 0 c-168 0 -803 0 -1010 0 l-160 0 0 530 c1 508 0
533 -19 573 -33 70 -76 110 -152 138 l-54 21 20 -24 c17 -19 15 -19 -10 3 -17
15 -61 37 -100 49 -91 30 -264 104 -392 169 -95 47 -108 51 -173 51 -52 0 -82
-6 -113 -21 -27 -13 -172 -150 -410 -387 l-367 -367 -455 455 -455 455 364
365 c239 239 372 380 387 410 18 34 23 62 24 116 0 63 -4 78 -41 150 -67 128
-149 320 -194 454 -23 69 -48 136 -55 150 -20 39 -75 87 -125 109 -43 20 -64
21 -572 21 l-528 0 0 645 0 645 505 0 c321 0 522 4 554 11 60 13 122 55 155
106 14 21 41 89 61 151 46 144 100 274 178 426 59 117 62 124 61 196 0 52 -6
86 -18 110 -10 19 -185 203 -389 408 l-372 372 230 230 230 230 -175 177 -175
178 178 -175 177 -175 225 225 224 224 370 -369 c203 -202 386 -378 407 -389
30 -16 57 -21 114 -20 70 0 81 3 176 51 141 72 298 138 442 185 140 46 194 81
232 148 l25 45 5 540 5 540 571 3 c492 2 573 4 584 17 7 8 15 15 17 15 3 0 0
-7 -7 -15z m2740 -868 c0 -2 -17 -19 -37 -38 l-38 -34 34 38 c33 34 41 42 41
34z m-80 -80 c0 -2 -17 -19 -37 -38 l-38 -34 34 38 c33 34 41 42 41 34z m-80
-80 c0 -2 -17 -19 -37 -38 l-38 -34 34 38 c33 34 41 42 41 34z m-80 -80 c0 -2
-17 -19 -37 -38 l-38 -34 34 38 c33 34 41 42 41 34z m-7345 -2357 c132 -132
238 -240 235 -240 -3 0 -113 108 -245 240 -132 132 -238 240 -235 240 3 0 113
-108 245 -240z m8875 187 c0 -2 -17 -19 -37 -38 l-38 -34 34 38 c33 34 41 42
41 34z m-80 -80 c0 -2 -17 -19 -37 -38 l-38 -34 34 38 c33 34 41 42 41 34z
m-80 -80 c0 -2 -17 -19 -37 -38 l-38 -34 34 38 c33 34 41 42 41 34z m-80 -80
c0 -2 -17 -19 -37 -38 l-38 -34 34 38 c33 34 41 42 41 34z m-80 -80 c0 -2 -17
-19 -37 -38 l-38 -34 34 38 c33 34 41 42 41 34z m-80 -80 c0 -2 -17 -19 -37
-38 l-38 -34 34 38 c33 34 41 42 41 34z m-30 -902 c19 -19 32 -35 29 -35 -3 0
-20 16 -39 35 -19 19 -32 35 -29 35 3 0 20 -16 39 -35z m80 -80 c19 -19 32
-35 29 -35 -3 0 -20 16 -39 35 -19 19 -32 35 -29 35 3 0 20 -16 39 -35z m80
-80 c19 -19 32 -35 29 -35 -3 0 -20 16 -39 35 -19 19 -32 35 -29 35 3 0 20
-16 39 -35z m-7205 -125 c66 -66 117 -120 115 -120 -3 0 -59 54 -125 120 -66
66 -117 120 -115 120 3 0 59 -54 125 -120z m6005 116 c0 -2 -8 -10 -17 -17
-16 -13 -17 -12 -4 4 13 16 21 21 21 13z m1280 -71 c19 -19 32 -35 29 -35 -3
0 -20 16 -39 35 -19 19 -32 35 -29 35 3 0 20 -16 39 -35z m-1330 22 c0 -2 -17
-19 -37 -38 l-38 -34 34 38 c33 34 41 42 41 34z m1410 -102 c19 -19 32 -35 29
-35 -3 0 -20 16 -39 35 -19 19 -32 35 -29 35 3 0 20 -16 39 -35z m-1490 22 c0
-2 -17 -19 -37 -38 l-38 -34 34 38 c33 34 41 42 41 34z m1570 -102 c19 -19 32
-35 29 -35 -3 0 -20 16 -39 35 -19 19 -32 35 -29 35 3 0 20 -16 39 -35z
m-1650 22 c0 -2 -17 -19 -37 -38 l-38 -34 34 38 c33 34 41 42 41 34z m-1920
-1940 c0 -2 -12 -14 -27 -28 l-28 -24 24 28 c23 25 31 32 31 24z m-1725 -97
c10 -11 16 -20 13 -20 -3 0 -13 9 -23 20 -10 11 -16 20 -13 20 3 0 13 -9 23
-20z m1635 6 c0 -2 -8 -10 -17 -17 -16 -13 -17 -12 -4 4 13 16 21 21 21 13z
m2230 -171 c85 -85 153 -155 150 -155 -3 0 -75 70 -160 155 -85 85 -153 155
-150 155 3 0 75 -70 160 -155z m-5980 142 c0 -2 -19 -21 -42 -42 l-43 -40 40
43 c36 39 45 47 45 39z m2200 -62 c13 -14 21 -25 18 -25 -2 0 -15 11 -28 25
-13 14 -21 25 -18 25 2 0 15 -11 28 -25z m1470 11 c0 -2 -8 -10 -17 -17 -16
-13 -17 -12 -4 4 13 16 21 21 21 13z m-3760 -39 c0 -2 -17 -19 -37 -38 l-38
-34 34 38 c33 34 41 42 41 34z m3680 -40 c0 -2 -10 -12 -22 -23 l-23 -19 19
23 c18 21 26 27 26 19z m-3760 -40 c0 -2 -17 -19 -37 -38 l-38 -34 34 38 c33
34 41 42 41 34z m3485 -1007 c10 -11 16 -20 13 -20 -3 0 -13 9 -23 20 -10 11
-16 20 -13 20 3 0 13 -9 23 -20z m-765 6 c0 -2 -8 -10 -17 -17 -16 -13 -17
-12 -4 4 13 16 21 21 21 13z m845 -86 c10 -11 16 -20 13 -20 -3 0 -13 9 -23
20 -10 11 -16 20 -13 20 3 0 13 -9 23 -20z m-925 6 c0 -2 -8 -10 -17 -17 -16
-13 -17 -12 -4 4 13 16 21 21 21 13z m1005 -86 c10 -11 16 -20 13 -20 -3 0
-13 9 -23 20 -10 11 -16 20 -13 20 3 0 13 -9 23 -20z m-1085 6 c0 -2 -8 -10
-17 -17 -16 -13 -17 -12 -4 4 13 16 21 21 21 13z m1165 -86 c10 -11 16 -20 13
-20 -3 0 -13 9 -23 20 -10 11 -16 20 -13 20 3 0 13 -9 23 -20z m-1245 6 c0 -2
-8 -10 -17 -17 -16 -13 -17 -12 -4 4 13 16 21 21 21 13z m1325 -86 c10 -11 16
-20 13 -20 -3 0 -13 9 -23 20 -10 11 -16 20 -13 20 3 0 13 -9 23 -20z m-1405
6 c0 -2 -8 -10 -17 -17 -16 -13 -17 -12 -4 4 13 16 21 21 21 13z m1485 -86
c10 -11 16 -20 13 -20 -3 0 -13 9 -23 20 -10 11 -16 20 -13 20 3 0 13 -9 23
-20z m-1565 6 c0 -2 -8 -10 -17 -17 -16 -13 -17 -12 -4 4 13 16 21 21 21 13z"/>
<path d="M6281 8379 c-47 -5 -136 -21 -199 -35 -751 -168 -1322 -765 -1457
-1524 -22 -127 -31 -400 -16 -526 102 -863 754 -1541 1606 -1669 131 -20 419
-20 550 0 513 77 966 355 1270 780 150 211 255 451 311 719 35 166 44 458 20
626 -94 644 -481 1175 -1061 1455 -310 149 -671 210 -1024 174z m430 -525
c271 -46 550 -186 724 -362 22 -22 33 -28 43 -20 9 8 11 7 6 -6 -4 -11 10 -34
45 -71 70 -77 153 -205 205 -316 228 -489 151 -1060 -200 -1474 -53 -62 -53
-62 -33 -83 l19 -22 -22 20 -22 20 -46 -44 c-119 -115 -307 -231 -470 -289
-598 -216 -1261 2 -1613 531 -101 152 -181 355 -212 541 -21 126 -16 383 10
501 52 235 161 450 319 629 36 40 63 78 59 84 -3 6 -1 7 6 3 7 -4 32 11 63 39
167 150 437 279 658 315 41 6 82 13 90 15 51 10 289 3 371 -11z m-1216 -324
c10 -11 16 -20 13 -20 -3 0 -13 9 -23 20 -10 11 -16 20 -13 20 3 0 13 -9 23
-20z m2070 -2070 c10 -11 16 -20 13 -20 -3 0 -13 9 -23 20 -10 11 -16 20 -13
20 3 0 13 -9 23 -20z m-2085 6 c0 -2 -8 -10 -17 -17 -16 -13 -17 -12 -4 4 13
16 21 21 21 13z"/>
</g>
</svg>
